<svg width="331" height="318" viewBox="0 0 331 318" fill="none" xmlns="http://www.w3.org/2000/svg">
<path d="M320.336 128.849L320.337 128.85C322.85 130.898 323.48 132.353 323.65 132.934C323.813 133.491 323.719 133.812 323.673 133.943C323.626 134.075 323.497 134.381 323.022 134.709C322.53 135.048 321.134 135.775 317.912 135.775H298.121H291.621V142.275V297.222C291.621 304.705 285.543 310.775 278.121 310.775H216.621C208.963 310.775 202.621 304.368 202.621 297.222V233.681C202.621 224.923 195.993 216.776 186.621 216.776H144.621C135.592 216.776 127.621 224.589 127.621 233.681V297.222C127.621 305.049 121.796 310.775 114.621 310.775H52.121C44.6989 310.775 38.621 304.706 38.621 297.222V142.275V135.775H32.121H12.33C9.10798 135.775 7.71167 135.048 7.21981 134.709C6.74423 134.381 6.61607 134.075 6.57015 133.946L6.56997 133.945C6.52377 133.815 6.42858 133.494 6.59237 132.933C6.76207 132.353 7.39249 130.897 9.90593 128.849L9.90708 128.848L154.439 11.0236C154.439 11.0234 154.44 11.0233 154.44 11.0231C157.154 8.8113 160.909 7.46594 165.086 7.46594C169.281 7.46594 173.062 8.82029 175.802 11.0515C175.802 11.0517 175.802 11.052 175.802 11.0522L231.015 56.0505L241.621 64.6948V51.0119V36.2749C241.621 33.7998 243.646 31.7749 246.121 31.7749H272.121C274.596 31.7749 276.621 33.7998 276.621 36.2749V90.1339V93.2217L279.015 95.1725L320.336 128.849Z" fill="#2B213A" stroke="white" stroke-width="13"/>
</svg>
