<svg width="161" height="161" viewBox="0 0 161 161" fill="none" xmlns="http://www.w3.org/2000/svg">
<rect width="161" height="161" rx="40" fill="white"/>
<path d="M90.5181 13.8562C107.262 40.5445 51.0426 48.3142 32.7933 57.9652C31.7908 58.4954 31.5356 59.7756 32.1799 60.7088L45.0536 79.3535C45.3405 79.7691 45.4596 80.2777 45.387 80.7775L37.2106 137.051C37.0852 137.914 37.5332 138.758 38.3179 139.138L68.1349 153.581C68.6817 153.846 69.3192 153.848 69.8677 153.586L99.9167 139.255C100.823 138.823 101.268 137.786 100.958 136.832L95.8509 121.118C95.4309 119.826 96.3942 118.5 97.753 118.5H118.886C120.034 118.5 120.946 117.535 120.883 116.389L119.585 93.0252C119.535 92.1247 120.094 91.3021 120.949 91.0169L127.982 88.6726C129.076 88.308 129.636 87.0966 129.205 86.0273L117.895 57.979C117.648 57.3664 117.737 56.6469 118.096 56.0925C140.303 21.8101 110.832 9.94704 91.974 10.7025C90.4298 10.7643 89.6968 12.5471 90.5181 13.8562Z" fill="#212327"/>
<path d="M81.2581 75.3169C86 71 97.0537 65.4387 110.063 70.0916C110.5 70.0916 103.193 96.9068 81.2581 75.3169Z" fill="white"/>
</svg>
