<svg width="259" height="42" viewBox="0 0 259 42" fill="none" xmlns="http://www.w3.org/2000/svg">
<path d="M59.0173 21C63.4175 18.1092 61.9507 12.3276 61.9507 12.3276C53.1502 12.3276 50.2168 21 50.2168 21C50.2168 21 53.1502 29.6724 61.9507 29.6724C61.9507 29.6724 63.4176 23.8908 59.0173 21Z" fill="#F4B2B0"/>
<path d="M26.6151 7.99129C30.723 7.99129 34.3704 9.01208 37.4934 10.4812V1.88928C21.3925 0.126369 17.8146 8.94103 17.8146 8.94103L18.0425 8.98196C20.5467 8.36401 23.3915 7.99129 26.6151 7.99129Z" fill="#F4B2B0"/>
<path d="M26.6151 34.0086C23.3283 34.0086 20.4341 33.622 17.8941 32.982C18.5051 34.2254 22.8732 41.7771 38.1657 40.1029V31.1911C34.8977 32.8339 31.0216 34.0086 26.6151 34.0086Z" fill="#F4B2B0"/>
<path d="M63.581 11.9258C63.3941 11.1888 62.722 10.6716 61.9509 10.6716C57.8376 10.6716 54.2213 12.3771 51.4928 15.6037C50.0645 17.2927 49.236 18.9862 48.8625 19.864C48.7985 19.9309 48.7381 20.0024 48.6848 20.0815C48.6112 20.1903 42.0135 29.7574 31.0269 31.9203C30.9679 31.9318 30.9093 31.9441 30.8503 31.9552C30.725 31.9789 30.5986 32.0004 30.4723 32.0221C30.3813 32.0377 30.2904 32.0532 30.1993 32.0676C30.0872 32.0855 29.9747 32.102 29.8618 32.1185C29.7549 32.1338 29.6479 32.1484 29.5409 32.1623C29.4378 32.1757 29.3343 32.1886 29.2302 32.2006C29.1117 32.2143 28.9931 32.2266 28.8743 32.2383C28.7788 32.2479 28.6832 32.2577 28.5872 32.266C28.4566 32.2773 28.3261 32.2865 28.1953 32.2956C28.1088 32.3015 28.0228 32.3085 27.9359 32.3134C27.7872 32.322 27.6382 32.328 27.4894 32.3338C27.4188 32.3365 27.3487 32.3406 27.2779 32.3425C27.0571 32.3491 26.836 32.3526 26.615 32.3526C26.2757 32.3526 25.939 32.3472 25.6037 32.3385C25.5552 32.3374 25.5064 32.3362 25.4579 32.3347C22.9388 32.2597 20.539 31.9392 18.3101 31.3777C18.2665 31.3667 18.2224 31.3618 18.1785 31.3543C14.3883 30.3862 11.0571 28.7162 8.22104 26.3562C5.65534 24.2212 4.20046 22.0587 3.57912 20.9984C4.83004 18.8604 9.47496 12.2624 20.0603 10.2417C20.0746 10.239 20.0887 10.2361 20.1029 10.2335C20.2781 10.2004 20.4549 10.1687 20.6332 10.1381C20.7981 10.1101 20.9639 10.0832 21.1303 10.0575C21.292 10.0323 21.4552 10.0087 21.6197 9.98542C21.819 9.95777 22.0187 9.93121 22.22 9.90687C22.3072 9.8963 22.3938 9.88524 22.4816 9.87528C22.7668 9.8432 23.054 9.81431 23.3429 9.78899C23.4122 9.78284 23.4824 9.77743 23.5524 9.77165C23.8439 9.74781 24.1368 9.72666 24.4321 9.70957C24.4518 9.70847 24.4708 9.70687 24.4904 9.70589C24.8032 9.68855 25.1187 9.67589 25.4354 9.6663C25.5074 9.66409 25.5796 9.66213 25.652 9.66028C25.9712 9.65229 26.2919 9.647 26.6149 9.647C26.8176 9.647 27.02 9.65032 27.2225 9.65561C27.2669 9.65671 27.311 9.6588 27.3555 9.66003C27.5259 9.66544 27.6961 9.67245 27.8663 9.68167C27.8947 9.68315 27.923 9.68499 27.9515 9.68646C30.9493 9.8625 33.9093 10.6297 36.7694 11.975C36.8218 11.9997 36.8753 12.0205 36.9292 12.0395C38.9317 12.9991 40.8864 14.2457 42.7851 15.7766C43.5033 16.3557 44.562 16.2513 45.1496 15.5436C45.7374 14.8358 45.6314 13.7926 44.9132 13.2135C43.0732 11.7299 41.1516 10.4784 39.1738 9.46519V1.88891C39.1738 1.04501 38.53 0.33633 37.6789 0.243274C36.2048 0.0818695 34.7673 0 33.4061 0C21.9237 0 17.7082 5.67865 16.5862 7.66258C11.7399 9.03716 8.24899 11.257 5.90345 13.238C1.81264 16.6941 0.211065 20.1808 0.144826 20.3276C-0.0482754 20.7559 -0.0482754 21.2445 0.144826 21.6727C0.211065 21.8194 1.81264 25.306 5.9037 28.7618C8.27693 30.7664 11.824 33.0145 16.7602 34.3849C18.1125 36.5911 22.5873 42 33.9381 42C35.3437 42 36.8288 41.9154 38.3514 41.7486C39.2024 41.6554 39.8463 40.9466 39.8463 40.103V32.1799C41.5877 31.2337 43.2826 30.1012 44.9136 28.7862C47.0646 27.052 48.714 25.3228 49.8231 24.0323C50.2501 24.7594 50.8012 25.5786 51.4929 26.3967C54.2214 29.6233 57.8378 31.3288 61.951 31.3288C62.7221 31.3288 63.3943 30.8116 63.5811 30.0745C63.6441 29.826 64.908 24.6277 61.5791 21.0004C64.9079 17.3726 63.6441 12.1744 63.581 11.9258ZM21.8784 6.60946C23.9264 4.9921 27.4803 3.31217 33.4064 3.31217C34.182 3.31217 34.9873 3.34167 35.813 3.39994V7.9833C33.0089 6.95906 30.1285 6.40884 27.215 6.34246H27.2136C27.0142 6.33803 26.8146 6.33545 26.6149 6.33545C26.2421 6.33545 25.8755 6.34172 25.5124 6.35119C25.4 6.35414 25.2883 6.35881 25.1763 6.36262C24.9212 6.37135 24.6681 6.38217 24.418 6.39544C24.2893 6.40245 24.1608 6.40958 24.0326 6.41745C23.7923 6.43257 23.5548 6.45027 23.319 6.46932C23.194 6.4794 23.0684 6.48825 22.9442 6.49968C22.6303 6.5282 22.3202 6.56016 22.0143 6.59557C21.9693 6.60061 21.9234 6.60405 21.8784 6.60946ZM36.4853 33.7609V38.5929C30.6369 39.0148 25.9643 38.0373 22.6295 35.7281C22.486 35.6285 22.3482 35.5291 22.2159 35.4294C22.3553 35.4446 22.4967 35.4557 22.6368 35.4695C22.7769 35.4834 22.9172 35.4971 23.0591 35.5097C23.225 35.524 23.3913 35.5373 23.5582 35.5497C23.7422 35.5635 23.9279 35.5759 24.1148 35.5871C24.2585 35.5957 24.4022 35.6047 24.5465 35.6118C24.77 35.6229 24.9966 35.6312 25.2239 35.6389C25.3391 35.6427 25.4539 35.6478 25.5696 35.6507C25.9142 35.6593 26.2621 35.6644 26.6152 35.6644C26.8174 35.6644 27.0195 35.662 27.2217 35.6573C27.407 35.653 27.5917 35.646 27.7766 35.6379C27.7891 35.6373 27.8014 35.637 27.8139 35.6365C30.7573 35.5024 33.6611 34.8745 36.4853 33.7609ZM60.5013 27.9211C55.1499 27.2001 52.7104 22.5925 52.0212 21.0039C52.7117 19.4346 55.1778 14.8101 60.4985 14.0806C60.5802 15.6335 60.3182 18.155 58.0852 19.622C57.6177 19.9291 57.3369 20.4462 57.3369 20.9998C57.3369 21.5533 57.6177 22.0705 58.0852 22.3775C60.3262 23.8501 60.5867 26.3665 60.5013 27.9211Z" fill="#B3404A"/>
<path d="M19.831 29.5012C19.2282 29.5012 18.6457 29.1807 18.3442 28.6194C17.9101 27.8109 18.2233 26.8088 19.0436 26.3813C21.0737 25.3227 22.3348 23.261 22.3348 21.0001C22.3348 18.7392 21.0737 16.6774 19.0436 15.619C18.2234 15.1914 17.9102 14.1892 18.3442 13.3808C18.778 12.5726 19.7949 12.2636 20.6154 12.6916C23.7488 14.3251 25.6956 17.5088 25.6956 21.0001C25.6956 24.4914 23.7489 27.6751 20.6154 29.3087C20.3649 29.4392 20.0959 29.5012 19.831 29.5012Z" fill="#B3404A"/>
<path d="M84.724 29H77.31C77.0313 29 76.826 28.9413 76.694 28.824C76.5767 28.692 76.518 28.4867 76.518 28.208V13.952C76.518 13.6733 76.5767 13.4753 76.694 13.358C76.826 13.226 77.0313 13.16 77.31 13.16H84.724C86.5573 13.16 87.914 13.5267 88.794 14.26C89.6887 14.9933 90.136 16.1227 90.136 17.648V24.512C90.136 26.0373 89.6887 27.1667 88.794 27.9C87.914 28.6333 86.5573 29 84.724 29ZM81.512 17.362V24.842H84.13C84.482 24.842 84.7387 24.754 84.9 24.578C85.076 24.402 85.164 24.1307 85.164 23.764V18.418C85.164 18.0513 85.076 17.7873 84.9 17.626C84.7387 17.45 84.482 17.362 84.13 17.362H81.512Z" fill="#B3404A"/>
<path d="M93.3721 29C93.0934 29 92.8881 28.9413 92.7561 28.824C92.6387 28.692 92.5801 28.4867 92.5801 28.208V25.59C92.5801 25.3113 92.6387 25.1133 92.7561 24.996C92.8881 24.864 93.0934 24.798 93.3721 24.798H95.5501V17.406H93.3721C93.0934 17.406 92.8881 17.3473 92.7561 17.23C92.6387 17.098 92.5801 16.8927 92.5801 16.614V13.952C92.5801 13.6733 92.6387 13.4753 92.7561 13.358C92.8881 13.226 93.0934 13.16 93.3721 13.16H102.744C103.023 13.16 103.221 13.226 103.338 13.358C103.47 13.4753 103.536 13.6733 103.536 13.952V16.614C103.536 16.8927 103.47 17.098 103.338 17.23C103.221 17.3473 103.023 17.406 102.744 17.406H100.61V24.798H102.744C103.023 24.798 103.221 24.864 103.338 24.996C103.47 25.1133 103.536 25.3113 103.536 25.59V28.208C103.536 28.4867 103.47 28.692 103.338 28.824C103.221 28.9413 103.023 29 102.744 29H93.3721Z" fill="#B3404A"/>
<path d="M113.732 29H110.168C109.89 29 109.684 28.9413 109.552 28.824C109.435 28.692 109.376 28.4867 109.376 28.208V17.406H106.142C105.864 17.406 105.658 17.3473 105.526 17.23C105.409 17.098 105.35 16.8927 105.35 16.614V13.952C105.35 13.6733 105.409 13.4753 105.526 13.358C105.658 13.226 105.864 13.16 106.142 13.16H117.758C118.037 13.16 118.235 13.226 118.352 13.358C118.484 13.4753 118.55 13.6733 118.55 13.952V16.614C118.55 16.8927 118.484 17.098 118.352 17.23C118.235 17.3473 118.037 17.406 117.758 17.406H114.524V28.208C114.524 28.4867 114.458 28.692 114.326 28.824C114.209 28.9413 114.011 29 113.732 29Z" fill="#B3404A"/>
<path d="M134.002 24.842C134.002 25.5167 133.9 26.1327 133.694 26.69C133.504 27.2327 133.152 27.702 132.638 28.098C132.14 28.4793 131.443 28.78 130.548 29C129.668 29.22 128.546 29.33 127.182 29.33C125.818 29.33 124.689 29.22 123.794 29C122.9 28.78 122.196 28.4793 121.682 28.098C121.184 27.702 120.832 27.2327 120.626 26.69C120.436 26.1327 120.34 25.5167 120.34 24.842V17.34C120.34 16.6653 120.436 16.0567 120.626 15.514C120.832 14.9567 121.184 14.48 121.682 14.084C122.196 13.688 122.9 13.38 123.794 13.16C124.689 12.94 125.818 12.83 127.182 12.83C128.546 12.83 129.668 12.94 130.548 13.16C131.443 13.38 132.14 13.688 132.638 14.084C133.152 14.48 133.504 14.9567 133.694 15.514C133.9 16.0567 134.002 16.6653 134.002 17.34V24.842ZM125.334 24.05C125.334 24.3433 125.444 24.5927 125.664 24.798C125.884 24.9887 126.39 25.084 127.182 25.084C127.974 25.084 128.48 24.9887 128.7 24.798C128.92 24.5927 129.03 24.3433 129.03 24.05V18.132C129.03 17.8533 128.92 17.6187 128.7 17.428C128.48 17.2227 127.974 17.12 127.182 17.12C126.39 17.12 125.884 17.2227 125.664 17.428C125.444 17.6187 125.334 17.8533 125.334 18.132V24.05Z" fill="#B3404A"/>
<path d="M147.341 29H141.973C140.14 29 138.776 28.6333 137.881 27.9C137.001 27.1667 136.561 26.0373 136.561 24.512V17.67C136.561 16.1447 137.001 15.0153 137.881 14.282C138.776 13.534 140.14 13.16 141.973 13.16H147.341C147.62 13.16 147.818 13.226 147.935 13.358C148.067 13.4753 148.133 13.6733 148.133 13.952V16.614C148.133 16.8927 148.067 17.098 147.935 17.23C147.818 17.3473 147.62 17.406 147.341 17.406H142.919C142.464 17.406 142.127 17.5013 141.907 17.692C141.687 17.868 141.577 18.1393 141.577 18.506V23.742C141.577 24.1087 141.687 24.38 141.907 24.556C142.127 24.7173 142.464 24.798 142.919 24.798H147.341C147.62 24.798 147.818 24.864 147.935 24.996C148.067 25.1133 148.133 25.3113 148.133 25.59V28.208C148.133 28.4867 148.067 28.692 147.935 28.824C147.818 28.9413 147.62 29 147.341 29Z" fill="#B3404A"/>
<path d="M164.104 24.842C164.104 25.5167 164.001 26.1327 163.796 26.69C163.605 27.2327 163.253 27.702 162.74 28.098C162.241 28.4793 161.552 28.78 160.672 29C159.792 29.22 158.67 29.33 157.306 29.33C155.942 29.33 154.82 29.22 153.94 29C153.06 28.78 152.363 28.4793 151.85 28.098C151.351 27.702 150.999 27.2327 150.794 26.69C150.603 26.1327 150.508 25.5167 150.508 24.842V13.952C150.508 13.6733 150.566 13.4753 150.684 13.358C150.816 13.226 151.021 13.16 151.3 13.16H154.754C155.032 13.16 155.23 13.226 155.348 13.358C155.48 13.4753 155.546 13.6733 155.546 13.952V23.984C155.546 24.2773 155.656 24.5267 155.876 24.732C156.096 24.9227 156.587 25.018 157.35 25.018C158.127 25.018 158.626 24.9227 158.846 24.732C159.066 24.5267 159.176 24.2773 159.176 23.984V13.952C159.176 13.6733 159.234 13.4753 159.352 13.358C159.484 13.226 159.689 13.16 159.968 13.16H163.312C163.59 13.16 163.788 13.226 163.906 13.358C164.038 13.4753 164.104 13.6733 164.104 13.952V24.842Z" fill="#B3404A"/>
<path d="M167.472 29C167.193 29 166.988 28.9413 166.856 28.824C166.738 28.692 166.68 28.4867 166.68 28.208V25.59C166.68 25.3113 166.738 25.1133 166.856 24.996C166.988 24.864 167.193 24.798 167.472 24.798H169.65V17.406H167.472C167.193 17.406 166.988 17.3473 166.856 17.23C166.738 17.098 166.68 16.8927 166.68 16.614V13.952C166.68 13.6733 166.738 13.4753 166.856 13.358C166.988 13.226 167.193 13.16 167.472 13.16H176.844C177.122 13.16 177.32 13.226 177.438 13.358C177.57 13.4753 177.636 13.6733 177.636 13.952V16.614C177.636 16.8927 177.57 17.098 177.438 17.23C177.32 17.3473 177.122 17.406 176.844 17.406H174.71V24.798H176.844C177.122 24.798 177.32 24.864 177.438 24.996C177.57 25.1133 177.636 25.3113 177.636 25.59V28.208C177.636 28.4867 177.57 28.692 177.438 28.824C177.32 28.9413 177.122 29 176.844 29H167.472Z" fill="#B3404A"/>
<path d="M186.094 17.78L185.06 21.124H188.514L187.48 17.78C187.421 17.648 187.355 17.5527 187.282 17.494C187.223 17.4353 187.15 17.406 187.062 17.406H186.512C186.424 17.406 186.343 17.4353 186.27 17.494C186.211 17.5527 186.153 17.648 186.094 17.78ZM184.84 28.208C184.84 28.4867 184.774 28.692 184.642 28.824C184.525 28.9413 184.327 29 184.048 29H180.814C180.535 29 180.33 28.9413 180.198 28.824C180.081 28.692 180.022 28.4867 180.022 28.208V22.4C180.022 21.96 180.088 21.454 180.22 20.882C180.367 20.31 180.587 19.6427 180.88 18.88L182.794 13.886C182.882 13.6367 183.014 13.4533 183.19 13.336C183.381 13.2187 183.623 13.16 183.916 13.16H189.834C190.113 13.16 190.34 13.2187 190.516 13.336C190.707 13.4533 190.846 13.6367 190.934 13.886L192.848 18.88C193.141 19.6427 193.354 20.31 193.486 20.882C193.633 21.454 193.706 21.96 193.706 22.4V28.208C193.706 28.4867 193.64 28.692 193.508 28.824C193.391 28.9413 193.193 29 192.914 29H189.592C189.299 29 189.079 28.9413 188.932 28.824C188.8 28.692 188.734 28.4867 188.734 28.208V25.128H184.84V28.208Z" fill="#B3404A"/>
<path d="M205.662 29H197.214C196.936 29 196.73 28.9413 196.598 28.824C196.481 28.692 196.422 28.4867 196.422 28.208V13.952C196.422 13.6733 196.481 13.4753 196.598 13.358C196.73 13.226 196.936 13.16 197.214 13.16H204.232C205.67 13.16 206.733 13.4387 207.422 13.996C208.112 14.5387 208.456 15.382 208.456 16.526V17.582C208.456 18.198 208.346 18.704 208.126 19.1C207.921 19.4813 207.598 19.7673 207.158 19.958C208.097 20.046 208.794 20.3687 209.248 20.926C209.703 21.4833 209.93 22.2973 209.93 23.368V25.392C209.93 26.624 209.578 27.5333 208.874 28.12C208.185 28.7067 207.114 29 205.662 29ZM201.372 16.9V19.276H203.242C203.521 19.276 203.726 19.2027 203.858 19.056C204.005 18.9093 204.078 18.6893 204.078 18.396V17.78C204.078 17.4867 204.005 17.2667 203.858 17.12C203.726 16.9733 203.521 16.9 203.242 16.9H201.372ZM201.372 22.664V25.26H204.232C204.511 25.26 204.716 25.1867 204.848 25.04C204.995 24.8933 205.068 24.6733 205.068 24.38V23.522C205.068 23.2287 204.995 23.016 204.848 22.884C204.716 22.7373 204.511 22.664 204.232 22.664H201.372Z" fill="#B3404A"/>
<path d="M218.106 17.78L217.072 21.124H220.526L219.492 17.78C219.433 17.648 219.367 17.5527 219.294 17.494C219.235 17.4353 219.162 17.406 219.074 17.406H218.524C218.436 17.406 218.355 17.4353 218.282 17.494C218.223 17.5527 218.164 17.648 218.106 17.78ZM216.852 28.208C216.852 28.4867 216.786 28.692 216.654 28.824C216.536 28.9413 216.338 29 216.06 29H212.826C212.547 29 212.342 28.9413 212.21 28.824C212.092 28.692 212.034 28.4867 212.034 28.208V22.4C212.034 21.96 212.1 21.454 212.232 20.882C212.378 20.31 212.598 19.6427 212.892 18.88L214.806 13.886C214.894 13.6367 215.026 13.4533 215.202 13.336C215.392 13.2187 215.634 13.16 215.928 13.16H221.846C222.124 13.16 222.352 13.2187 222.528 13.336C222.718 13.4533 222.858 13.6367 222.946 13.886L224.86 18.88C225.153 19.6427 225.366 20.31 225.498 20.882C225.644 21.454 225.718 21.96 225.718 22.4V28.208C225.718 28.4867 225.652 28.692 225.52 28.824C225.402 28.9413 225.204 29 224.926 29H221.604C221.31 29 221.09 28.9413 220.944 28.824C220.812 28.692 220.746 28.4867 220.746 28.208V25.128H216.852V28.208Z" fill="#B3404A"/>
<path d="M232.526 29H229.226C228.947 29 228.742 28.9413 228.61 28.824C228.493 28.692 228.434 28.4867 228.434 28.208V13.952C228.434 13.6733 228.493 13.4753 228.61 13.358C228.742 13.226 228.947 13.16 229.226 13.16H231.514C231.793 13.16 232.027 13.204 232.218 13.292C232.423 13.38 232.621 13.534 232.812 13.754L237.08 18.638V13.952C237.08 13.6733 237.139 13.4753 237.256 13.358C237.388 13.226 237.593 13.16 237.872 13.16H241.172C241.451 13.16 241.649 13.226 241.766 13.358C241.898 13.4753 241.964 13.6733 241.964 13.952V28.208C241.964 28.4867 241.898 28.692 241.766 28.824C241.649 28.9413 241.451 29 241.172 29H237.872C237.593 29 237.388 28.9413 237.256 28.824C237.139 28.692 237.08 28.4867 237.08 28.208V25.502L233.318 20.948V28.208C233.318 28.4867 233.252 28.692 233.12 28.824C233.003 28.9413 232.805 29 232.526 29Z" fill="#B3404A"/>
<path d="M258.418 24.842C258.418 25.5167 258.316 26.1327 258.11 26.69C257.92 27.2327 257.568 27.702 257.054 28.098C256.556 28.4793 255.859 28.78 254.964 29C254.084 29.22 252.962 29.33 251.598 29.33C250.234 29.33 249.105 29.22 248.21 29C247.316 28.78 246.612 28.4793 246.098 28.098C245.6 27.702 245.248 27.2327 245.042 26.69C244.852 26.1327 244.756 25.5167 244.756 24.842V17.34C244.756 16.6653 244.852 16.0567 245.042 15.514C245.248 14.9567 245.6 14.48 246.098 14.084C246.612 13.688 247.316 13.38 248.21 13.16C249.105 12.94 250.234 12.83 251.598 12.83C252.962 12.83 254.084 12.94 254.964 13.16C255.859 13.38 256.556 13.688 257.054 14.084C257.568 14.48 257.92 14.9567 258.11 15.514C258.316 16.0567 258.418 16.6653 258.418 17.34V24.842ZM249.75 24.05C249.75 24.3433 249.86 24.5927 250.08 24.798C250.3 24.9887 250.806 25.084 251.598 25.084C252.39 25.084 252.896 24.9887 253.116 24.798C253.336 24.5927 253.446 24.3433 253.446 24.05V18.132C253.446 17.8533 253.336 17.6187 253.116 17.428C252.896 17.2227 252.39 17.12 251.598 17.12C250.806 17.12 250.3 17.2227 250.08 17.428C249.86 17.6187 249.75 17.8533 249.75 18.132V24.05Z" fill="#B3404A"/>
</svg>
